<?xml version="1.0" encoding="utf-8"?>
<!-- Generator: Adobe Illustrator 25.4.1, SVG Export Plug-In . SVG Version: 6.00 Build 0)  -->
<svg version="1.1" id="Ebene_1" xmlns="http://www.w3.org/2000/svg" xmlns:xlink="http://www.w3.org/1999/xlink" x="0px" y="0px"
	 viewBox="0 0 141.7 141.7" style="enable-background:new 0 0 141.7 141.7;" xml:space="preserve">
<style type="text/css">
	.st0{fill:#FFFFFF;}
	.st1{fill:#503729;}
</style>
<polygon class="st0" points="36.9,129.4 105.3,129.4 139.3,71 105.3,12.5 36.9,12.5 2.8,71 "/>
<polygon class="st1" points="41.6,82.3 50.1,122.7 68.3,118.2 46.5,81.6 "/>
<path class="st1" d="M70.5,52.7c-2.3-0.4-4.5-0.5-6.7-0.5c-2.5,0-4.9,0.2-7,0.7c-0.7,4.1-1.8,8.3-3.6,11.9s-4.1,7.2-7,10.3
	c1.8,3.6,4.9,7.4,8.5,10.8c4.1-4.5,8.1-9.7,10.8-15.3C68.1,65.2,69.6,58.9,70.5,52.7"/>
<path class="st1" d="M108,76c-2.5-4.7-6-9.2-10.3-12.8C97.3,70,96.1,77.6,93,83.9c-3.1,6.3-8.3,12.1-13.3,16.8
	c5.2,1.4,10.3,1.8,15,1.6c3.6-4,6.7-8.5,9-13.3C105.6,85,107.1,80.5,108,76"/>
<path class="st1" d="M90.8,59.1c-4-1.8-7.8-3.2-11.5-4.3c-0.4,6.9-1.6,14.4-4.5,20.6c-3.1,6.3-7.9,11.9-13.2,16.6
	c3.2,2.3,6.9,4.3,10.6,6.3c5-5,9.9-11,13.2-17.7C88.5,73.7,90.1,66.1,90.8,59.1"/>
<path class="st1" d="M111.6,84.1c-0.7,2.9-1.6,5.6-2.9,8.3c-1.6,3.2-3.8,6.5-6.1,9.4c7.6-1.3,12.6-3.4,12.6-3.4
	S114.5,91.9,111.6,84.1"/>
<polygon class="st1" points="91.6,19.4 59.1,44.8 62.5,48.6 102.7,34.5 "/>
<path class="st1" d="M45.9,45.7c-2.3-1.3-5-1.4-7.6-0.7l-4-5.2l1.4-2.9l-3.1-1.4l-2.3,4.9l4.7,6.1c-2.3,1.4-4.3,3.4-5.8,6.1
	c-1.4,2.7-2,5.6-1.8,8.3L20,62.1l-1.6,5l3.2,1.1l1.1-3.1l5.8-0.9c0.9,2.5,2.5,4.5,4.9,5.8c5.6,2.9,13.2-0.2,16.6-6.9
	C53.5,56.3,51.7,48.6,45.9,45.7"/>
</svg>
