<?xml version="1.0" encoding="utf-8"?>
<!-- Generator: Adobe Illustrator 25.4.1, SVG Export Plug-In . SVG Version: 6.00 Build 0)  -->
<svg version="1.1" id="Ebene_1" xmlns="http://www.w3.org/2000/svg" xmlns:xlink="http://www.w3.org/1999/xlink" x="0px" y="0px"
	 viewBox="0 0 263.6 70.9" style="enable-background:new 0 0 263.6 70.9;" xml:space="preserve">
<style type="text/css">
	.st0{fill:#503729;}
	.st1{clip-path:url(#SVGID_00000177453550970058032250000004908770872921792410_);fill:#FFFFFF;}
	.st2{clip-path:url(#SVGID_00000177453550970058032250000004908770872921792410_);fill:#503729;}
</style>
<polygon class="st0" points="42.4,0 34.1,14.2 0,14.2 0,57.1 34.4,57.1 42.4,70.9 83.7,70.9 91.8,57.1 263.6,57.1 263.6,14.2 
	92,14.2 83.7,0 "/>
<g>
	<defs>
		<rect id="SVGID_1_" y="0" width="263.6" height="70.9"/>
	</defs>
	<clipPath id="SVGID_00000127022506919722428710000003009283058449636001_">
		<use xlink:href="#SVGID_1_"  style="overflow:visible;"/>
	</clipPath>
	<path style="clip-path:url(#SVGID_00000127022506919722428710000003009283058449636001_);fill:#FFFFFF;" d="M132.5,40.3
		c-0.1,0-0.3,0.1-0.3,0.2c0,0,0,0.1,0.1,0.1c-0.1,0.1-0.1,0.1-0.1,0.2l0.1,0.3c0,0.1-0.1,0.2-0.3,0.2c0.1,0.1,0.3,0.1,0.3,0.3
		c-0.4,0.6-0.6,1.2-1,1.9c-0.3,0.1-0.8,0.2-0.9,0.7c-0.1,0-0.1,0-0.1,0c-0.2,0-0.2,0.3-0.4,0.3c0,0-0.1,0-0.1,0
		c-0.2,0.4-0.8,0-0.8,0.5c-0.2,0-0.5-0.1-0.8-0.1c-0.2,0-0.5,0-0.7,0.2c-0.3-0.1-0.6-0.1-1-0.1c-1.7,0-2.6,0.2-4.4,0.2h-0.2
		c-0.2,0-0.3,0-0.3-0.1c0-0.1,0.3-0.3,0.3-0.4c0-0.1-0.5-0.2-0.5-0.4c0,0,0-0.1,0-0.1c-0.1-0.1-0.1-0.1-0.1-0.1l0-0.3
		c-0.1-0.1-0.1-0.2-0.1-0.4l0.1-0.1l0-0.3c-0.1-0.1-0.1-0.1-0.1-0.3l0-0.5c0-0.1,0-0.2-0.1-0.3c0.1-0.1,0.1-0.3,0.1-0.5l-0.1-1
		c0-0.1,0.1-0.1,0.1-0.2c0-0.2-0.1-0.4-0.1-0.6c0-0.1,0-0.2,0.1-0.3c0-0.5,0-0.8,0-1.1c0-0.6,0-0.8,0.1-1.1v-0.1
		c-0.1-0.1-0.1-0.1-0.1-0.2c0-0.1,0.1-0.3,0.1-0.4c-0.1-0.1-0.2-0.2-0.2-0.4c0-0.1,0-0.1,0-0.2c0,0-0.1,0-0.1,0
		c0.1-0.1,0.1-0.2,0.1-0.3c0-0.1-0.1-0.3-0.1-0.4c0-0.1,0.1-0.2,0.1-0.3c-0.1-0.1-0.1-0.1-0.1-0.2l0.1-0.5c0-0.1,0-0.2-0.1-0.3
		L121,34v-0.1c0-0.5,0.1-2,0.1-3c0-0.2,0-0.4,0-0.6c0-0.1,0.1-0.1,0.1-0.2c0-0.1-0.1-0.1-0.1-0.3c0-0.1,0.1-0.3,0.1-0.4
		c0-0.2-0.1-0.4-0.1-0.7l0-0.1c-0.1-0.1-0.1-0.3-0.1-0.6v-0.3c0-0.2,0-0.4-0.1-0.6c0.1-0.1,0.1-0.2,0.1-0.3c0-0.2-0.1-0.3-0.1-0.5
		c0-0.1,0-0.1,0.1-0.2c0-0.1,0-0.1,0-0.1c0-0.2,1-0.6,1.5-0.9l0.2,0c0.9,0,1.9,0.3,3.2,0.3c0.3,0,0.6,0,0.9-0.1
		c0.2,0.1,0.5,0.2,0.7,0.2c0.3,0,0.5,0,0.7-0.1c0.1,0.5,0.7,0.1,0.9,0.5c0,0,0.1,0,0.1,0c0.2,0,0.2,0.4,0.4,0.4c0,0,0.1,0,0.1-0.1
		c0.1,0.4,0.6,0.6,0.8,0.7l0.1,0c0.5,0.7,0.7,1.3,1,1.9c0,0.2-0.1,0.2-0.2,0.3c0.2,0,0.3,0.1,0.3,0.2l-0.1,0.3c0,0.1,0,0.2,0.1,0.3
		c-0.1,0.1-0.1,0.1-0.1,0.1c0,0.1,0.3,0.2,0.3,0.2l0.1,0.1c-0.2,0-0.2,0.1-0.2,0.1l0.1,0.2c0,0.1,0,0.1-0.2,0.1l0.1,0.4
		c-0.4,0.2-0.2,0.9-0.4,1.2c0,0.1,0,0.1,0,0.2c0,0.3-0.2,0.2-0.2,0.4v0.1c0,0.1,0,0.1-0.1,0.2l-0.2,0.1c0,0,0,0.1,0,0.1
		c0,0.2-0.1,0.4-0.3,0.6l0,0c0.1,0,0.1,0.1,0.1,0.2c-0.2,0-0.6,0-0.6,0.2l0,0.1c0.2,0.1,0.4,0.2,0.4,0.4v0.1c0,0.2,0.3,0.2,0.6,0.2
		c0,0.1,0,0.3-0.1,0.3c0.1,0.2,0.3,0.4,0.3,0.6c0,0.1,0,0.1,0,0.1l0.3,0.1c0.1,0,0.1,0.1,0.1,0.1c0,0.1,0,0.2,0,0.2
		c0,0.1,0.2,0.2,0.2,0.4c0,0.1,0,0.1-0.1,0.2c0.3,0.3,0,1,0.4,1.2l-0.1,0.4c0.1,0.1,0.2,0.1,0.2,0.3c0,0.1-0.1,0.3-0.1,0.4
		C132.3,40.1,132.4,40.2,132.5,40.3L132.5,40.3z M121.9,28.6C121.9,28.6,121.9,28.5,121.9,28.6c-0.1-0.1-0.2-0.1-0.2,0v0
		C121.7,28.7,121.8,28.7,121.9,28.6C121.9,28.7,121.9,28.7,121.9,28.6L121.9,28.6z M122,42c0-0.1-0.1-0.1-0.1-0.1s-0.1,0-0.1,0.1
		C121.7,42.1,121.8,42.1,122,42C121.9,42.1,122,42.1,122,42L122,42z M122,29.2c-0.1,0-0.2,0-0.2,0.1c0,0,0,0.1,0.1,0.1
		C122,29.4,122.1,29.3,122,29.2C122.1,29.2,122,29.2,122,29.2 M122,41.3C121.9,41.3,121.9,41.3,122,41.3l-0.1,0.1c0,0,0.2,0,0.2-0.1
		C122.1,41.3,122.1,41.3,122,41.3L122,41.3z M122.3,26.5c0-0.1-0.2-0.1-0.3-0.1c0,0,0.1,0.2,0.1,0.2
		C122.2,26.6,122.2,26.5,122.3,26.5L122.3,26.5z M122.2,44.1c-0.1,0-0.1,0-0.1,0.1l0.3-0.1C122.3,44.1,122.2,44.1,122.2,44.1
		 M122.9,44.1c0,0-0.1,0.1-0.1,0.1c0,0.1,0,0.2,0.1,0.2h0.1L122.9,44.1z M123.1,43.5C123.1,43.4,123.1,43.4,123.1,43.5l-0.1-0.1
		c0,0,0,0,0,0L123.1,43.5C123.1,43.5,123.1,43.5,123.1,43.5L123.1,43.5z M123.2,37c-0.1,0-0.1,0-0.1,0.1h0.1c0.1,0,0.1,0,0.1,0
		C123.3,37,123.3,37,123.2,37 M123.2,33.1L123.2,33.1c-0.1,0.1,0,0.1,0,0.1c0.1,0,0.1,0,0.1-0.1L123.2,33.1z M123.4,44.1
		c0-0.1-0.1-0.1-0.2-0.1c0,0-0.1,0.1-0.1,0.1c0,0.1,0.1,0.1,0.1,0.1C123.4,44.1,123.4,44.1,123.4,44.1L123.4,44.1z M123.4,39.5
		c-0.1,0.1-0.1,0.2-0.1,0.3v0c0.1-0.1,0.2-0.2,0.3-0.3C123.5,39.5,123.4,39.5,123.4,39.5 M123.5,29.3c0-0.1-0.1-0.1-0.1-0.1
		c-0.1,0-0.1,0.1-0.1,0.1C123.3,29.4,123.4,29.4,123.5,29.3C123.5,29.4,123.5,29.3,123.5,29.3 M123.5,41.5
		C123.5,41.5,123.5,41.5,123.5,41.5c0.1-0.1,0-0.2-0.1-0.3h0c0,0,0,0,0,0.1C123.3,41.4,123.4,41.5,123.5,41.5L123.5,41.5z
		 M123.7,43.2c-0.1,0,0,0.3-0.1,0.5h0.1c0-0.1,0.2-0.2,0.2-0.3C123.9,43.4,123.8,43.4,123.7,43.2C123.7,43.3,123.7,43.2,123.7,43.2
		 M125.9,28c-0.3,0-0.5,0.3-0.7,0.3c-0.2,0-0.3-0.1-0.4-0.3c-0.3,0.4-0.9-0.2-0.9,0.9l0.1,1c0,0.1,0,0.2,0,0.3
		c0,0.2,0.1,0.3,0.1,0.5c0,0.8-0.3,1.4-0.3,2.2c0,0.4,0,0.9,0.7,0.9c0.1,0,0.1,0,0.2,0c0.4,0.2,0.9,0.3,1.4,0.3
		c2.1,0,2.9-1.4,2.9-2.5c0-0.2,0-0.5-0.1-0.8C128.4,29.3,127.4,28,125.9,28 M129.2,39c0-1.4-0.8-2.7-3-2.7c-0.6,0-1.2,0.1-1.6,0.3
		c-0.1,0-0.1-0.1-0.2-0.1c-0.2,0-0.4,0.1-0.6,0.3c0.1,0.6,0.1,2,0.2,3.8v0.1c0,0.3-0.1,0.8-0.1,1.2c0,0.1,0,0.3,0,0.4l0.1,0.2
		c0.2,0.1,1,0,1.2,0.2c0-0.1,0.1-0.1,0.3-0.1c0.4,0,1,0.3,1,0.3c0.1,0,0.2-0.3,0.5-0.3c1.4-0.3,2.2-1.9,2.2-3.4V39z M129.1,28.8
		c-0.1,0-0.1,0-0.1,0.1l0.1,0.1C129.1,29,129.2,28.9,129.1,28.8C129.2,28.9,129.1,28.8,129.1,28.8L129.1,28.8z M129.5,41.7
		c0,0-0.1,0-0.1,0.1c0,0.1,0,0.1,0.1,0.1h0C129.5,41.9,129.6,41.9,129.5,41.7C129.6,41.7,129.6,41.7,129.5,41.7L129.5,41.7z
		 M130.2,33.4c0-0.1-0.2-0.1-0.2-0.1v0c0,0.1,0.1,0.2,0.1,0.2C130.1,33.6,130.2,33.5,130.2,33.4 M130.5,33.1c0-0.1-0.3-0.1-0.3-0.1
		v0c0,0.1,0.1,0.1,0.1,0.2l0.1,0C130.4,33.2,130.5,33.2,130.5,33.1L130.5,33.1z M130.8,37c0,0-0.2,0.1-0.2,0.2l0,0.1h0
		c0.1,0,0.1-0.1,0.2-0.1L130.8,37z M131.4,30.5c0-0.1,0-0.1-0.1-0.1c-0.1,0-0.1,0.1-0.1,0.1c0,0.1,0,0.1,0.1,0.1l0.1,0
		C131.3,30.6,131.3,30.6,131.4,30.5C131.4,30.6,131.4,30.5,131.4,30.5 M131.8,40c0-0.1,0-0.1-0.1-0.1c-0.1,0-0.1,0.1-0.1,0.1
		c0,0,0,0.1,0.1,0.1L131.8,40C131.8,40.1,131.8,40.1,131.8,40C131.8,40.1,131.8,40,131.8,40"/>
	<path style="clip-path:url(#SVGID_00000127022506919722428710000003009283058449636001_);fill:#FFFFFF;" d="M138.1,26.6
		c0,0.3-0.3,0.6-0.3,1l0,0.1c-0.1,0.3,0,0.8-0.3,0.8h0c-0.1-0.1-0.3-0.1-0.4-0.1l-0.8,0.1c-0.2,0-0.4-0.1-0.6-0.3l-0.3,0.2
		c-0.2-0.2-0.2-0.5-0.2-0.8c0-0.2,0.1-0.5,0.1-0.7v-0.1c0-0.2-0.1-0.3-0.3-0.3c0-0.3,0.3-0.5,0.3-0.7c0-0.1,0-0.2-0.1-0.3v-0.1h0
		l0.5,0.2c0,0,0.1,0,0.1-0.1c-0.1-0.1-0.1-0.2-0.1-0.3c0-0.1,0-0.2,0.1-0.2c0.6,0.1,1.3,0,1.8,0.2v0.1c0,0.3,0.6,0.4,0.6,0.7
		c0,0.1,0,0.2-0.1,0.3C138.1,26.4,138.1,26.5,138.1,26.6 M136.7,45.5c-0.1-0.1-0.2-0.1-0.3-0.1c-0.2,0-0.5,0.1-0.7,0.1
		c-0.1,0-0.3-0.1-0.4-0.2c0.2-0.1,0.2-0.3,0.2-0.5c0-0.3-0.1-0.6-0.1-0.9c0-0.1,0.1-0.3,0.1-0.4c0-0.7,0-1.3,0-2v-2
		c0-0.8,0-1.6-0.1-2.5c0-0.3,0-0.7,0-1v-1c0-1,0-1.9-0.3-2.9c0.1-1.2,1.6-0.7,2.4-1c0.1,0,0.1,0,0.1,0c0.3,0,0.4,0.3,0.4,0.5
		c-0.2,1.9-0.3,4-0.3,6v0.7c0,2.4,0,4.8,0.3,7.2L136.7,45.5z M136.7,25.7c-0.1,0.1-0.2,0.1-0.3,0.1h-0.3c-0.1,0-0.3,0-0.4,0.2
		c0,0.1,0,0.4,0.2,0.5v0c0-0.7,0.9-0.3,1.2-0.6c0.2,0.1,0.4,0.2,0.4,0.5c0,0,0,0.1,0.1,0.1s0.1,0,0.1-0.1c0,0,0.1-0.1,0.1-0.1
		c0-0.1,0-0.1,0-0.1C137.5,25.7,137,26,136.7,25.7 M136,45.1c0-0.2,0-0.3,0-0.4c0-0.1,0-0.3,0-0.4c0-0.1,0-0.3,0-0.4v-0.5
		c0-0.3,0-0.6-0.2-0.9V45C135.8,45.1,135.9,45.1,136,45.1L136,45.1z M137.8,45.3c0,0,0.1-0.1,0.1-0.1c0-0.1,0-0.1-0.1-0.2
		c-0.1,0-0.1,0.1-0.1,0.2C137.7,45.2,137.7,45.3,137.8,45.3L137.8,45.3C137.9,45.3,137.9,45.3,137.8,45.3L137.8,45.3z M138.2,25.6
		L138.2,25.6l-0.1-0.1c0-0.1,0.1-0.1,0.1-0.1h0c0,0,0.1,0.1,0.1,0.1S138.2,25.6,138.2,25.6C138.2,25.6,138.2,25.6,138.2,25.6"/>
	<path style="clip-path:url(#SVGID_00000127022506919722428710000003009283058449636001_);fill:#FFFFFF;" d="M149.8,41.9
		c0,0.2-0.1,0.3-0.3,0.4c-0.1,1.2-0.7,2.5-1.9,3.1c-0.7,0.3-1.4,0.5-2.2,0.5c-1,0-2-0.3-2.8-0.7c-2-1.1-2.1-3-2.1-4.9l0-0.4
		c0-0.6-0.1-1.2-0.1-1.7c0-1.8,0.3-3.5,1.2-5c0.5-0.8,1.3-1,2.1-1.5c0.5-0.3,1.1-0.4,1.6-0.4c1.2,0,2.3,0.6,3.1,1.5
		c1.1,1.3,1,3.1,1.1,4.8c0,0.2,0.1,0.3,0.1,0.6l-0.1,1.4l-0.3,0.2c-1.8-0.1-3.5,0-5.4-0.2c-1.2,0-0.7,0.3-0.9,0.6
		c0.1,1.6,0.5,2.9,2.1,3.5l0.2,0c0.5,0,0.8-0.4,1.3-0.5c0.8-0.6,0-1.8,1-2.1c0.2,0,0.3,0.1,0.5,0.1c0.4,0,0.8-0.1,1.1-0.1
		c0.2,0,0.4,0,0.6,0.1C149.6,41.2,149.8,41.6,149.8,41.9 M142.4,32.7L142.4,32.7c-0.3,0-0.4,0.1-0.4,0.2c0,0,0,0.1,0.1,0.1l0.1,0
		l0.1,0C142.3,33,142.5,32.9,142.4,32.7C142.5,32.8,142.4,32.7,142.4,32.7 M142.3,44.3c0-0.1-0.1-0.2-0.1-0.2c0,0-0.1,0-0.1,0
		c0,0,0,0.1,0,0.1c0,0.1,0.1,0.3,0.3,0.3V44.3z M143.3,45c0-0.1-0.2-0.2-0.3-0.2c-0.1,0-0.1,0-0.1,0.1V45c0,0.1,0.1,0.1,0.3,0.1
		C143.2,45.1,143.3,45.1,143.3,45L143.3,45z M146.7,34.7c-0.3-0.6-0.9-1.1-1.6-1.1c-0.1,0-0.2,0-0.3,0c-0.7,0.1-1.4,0.8-1.5,1.4
		c0,0.4-0.2,1-0.2,1.4c0,0.3,0.1,0.5,0.3,0.8c0.3,0.1,0.7,0.2,1.1,0.2l1.9-0.1c0.3,0,0.5,0,0.8,0.1C147.1,36.6,147,35.6,146.7,34.7
		 M145.7,45.5c0-0.1-0.1-0.1-0.2-0.1h0c-0.1,0-0.1,0.1-0.1,0.1v0.1c0,0,0.1,0,0.1,0.1l0.1,0C145.6,45.7,145.7,45.7,145.7,45.5
		L145.7,45.5z M147.8,32.7c-0.5-0.7-1.4-1.1-2.1-1.1l-0.3,0c0.6,0.1,1,0.4,1.5,0.5C147.4,32.2,147.4,32.7,147.8,32.7L147.8,32.7z
		 M146.1,45.6c0,0.1,0.1,0.1,0.2,0.1c0.2,0,0.5-0.1,0.6-0.2c0.2-0.1,0.5-0.4,0.5-0.4C146.7,45.6,146.1,45.5,146.1,45.6 M149.5,38.9
		c-0.2,0.1,0,0.2-0.3,0.3c-0.3,0.2-0.5,0.1-0.5,0.2v0c0,0.1,0.1,0.1,0.2,0.1c0.2,0,0.4-0.1,0.5-0.3C149.5,39.2,149.5,39,149.5,38.9
		L149.5,38.9z"/>
	<path style="clip-path:url(#SVGID_00000127022506919722428710000003009283058449636001_);fill:#FFFFFF;" d="M161.1,35.6
		c0,0.1,0,0.1,0.1,0.2v3c0,0.1-0.1,0.2-0.1,0.3v6c-0.2,0.3-0.6,0.3-1,0.5c-0.2-0.1-0.5-0.1-0.8-0.1h-0.3c-0.4,0-0.8,0-1-0.6
		c0.1-0.6,0.1-1.1,0.1-1.7c0-0.6,0-1.1-0.1-1.7c0.1-0.3,0.2-0.5,0.2-0.7l-0.1-1.2c0-0.1,0-0.3,0.1-0.4v-3.4c0-0.8-0.1-1.6-0.7-2.2v0
		l0.1-0.3c0-0.1,0-0.1-0.1-0.1c-0.1,0-0.1-0.1-0.1-0.1c-0.1,0-0.1,0.3-0.3,0.3h0c-0.1-0.1-0.2-0.1-0.3-0.1c-0.5,0-0.9,0.4-1.3,0.7
		c-0.6,0.6-0.7,1.3-0.7,2.1v1.7c0,0.3,0,0.6-0.1,0.9c0.1,0.2,0.1,0.3,0.1,0.5l-0.1,0.9c0,0.1,0,0.2,0.1,0.3v4.1
		c0.1,0.1,0.1,0.2,0.1,0.3l-0.1,0.7c-0.2,0.2-0.4,0.3-0.7,0.3c-0.3,0-0.6-0.1-0.8-0.2c-0.1,0.1-0.1,0.1-0.2,0.1
		c-0.1,0-0.3-0.1-0.4-0.1c-0.4-0.2-0.5-0.6-0.5-0.9l0.1-1.4c0-0.1,0-0.3-0.1-0.4v-0.6c0-1.2-0.1-2.3-0.1-3.6
		c0.1-0.1,0.1-0.3,0.1-0.6c0-0.6-0.1-1.6-0.1-2.4c0-0.6,0.1-1,0.2-1.3c-0.1-0.1-0.1-0.2-0.1-0.3c0-0.2,0.1-0.4,0.1-0.7v-0.1
		c-0.1-0.2-0.1-0.4-0.1-0.6c0-0.3,0-0.5,0.1-0.8c0.3-0.2,0.6-0.3,1-0.3c0.4,0,0.8,0.1,1.2,0.1c0.2,0.1,0,0.4,0.3,0.5
		c0.9-0.2,1.7-0.8,2.7-0.8c0.2,0,0.4,0,0.7,0.1c0.1,0,0.2,0,0.3,0l0.7,0c0.2,0,0.4,0,0.6,0.1c0.3,0.7,1.3,0.8,1.3,1.6v0.1
		c0.3,0.2,0.4,0.5,0.4,0.8l0,0.6c0,0.2,0,0.4,0.1,0.6C161.3,35.3,161.1,35.4,161.1,35.6 M152.3,35.7c0.2-0.1,0.3-0.3,0.3-0.6
		c0-0.2-0.1-0.4-0.1-0.4C152.3,35.1,152.4,35.4,152.3,35.7 M154.3,31.8C154.3,31.8,154.2,31.8,154.3,31.8l-0.2,0
		c-0.1,0-0.3-0.1-0.4-0.1c-0.1,0-0.1,0-0.1,0.1v0.1c0,0,0.2,0.1,0.4,0.1C154,32,154.1,32,154.3,31.8
		C154.2,31.9,154.3,31.9,154.3,31.8 M154.5,45c-0.1,0-0.2,0.3-0.4,0.3c0.1,0,0.2,0.1,0.3,0.1h0c0.1,0,0.3-0.1,0.3-0.2
		c0,0,0-0.1,0-0.1C154.6,45.2,154.6,45,154.5,45 M158,31.5c-0.1-0.1-0.1-0.1-0.2-0.1c-0.2,0-0.5,0.3-0.4,0.3c0,0,0,0.1,0.1,0.1
		c0.1,0,0.2-0.1,0.3-0.1C157.9,31.7,158,31.6,158,31.5L158,31.5z M159.1,31.8c-0.2-0.2-0.4-0.3-0.7-0.3h-0.1
		c-0.1,0.1-0.1,0.1-0.1,0.2c0,0,0,0.1,0.1,0.1c0.1,0,0.1,0,0.2,0c0.2,0,0.3,0.1,0.6,0.1V31.8z M160.5,33.6c0-0.1-0.1-0.4-0.2-0.4h0
		c-0.1,0-0.1,0.1-0.1,0.1c0,0.1,0.1,0.4,0.2,0.4C160.5,33.8,160.5,33.7,160.5,33.6"/>
	<path style="clip-path:url(#SVGID_00000127022506919722428710000003009283058449636001_);fill:#FFFFFF;" d="M173,41.9
		c0,0.2-0.1,0.3-0.3,0.4c-0.1,1.2-0.7,2.5-1.9,3.1c-0.7,0.3-1.4,0.5-2.2,0.5c-1,0-2-0.3-2.8-0.7c-2-1.1-2.1-3-2.1-4.9l0-0.4
		c0-0.6-0.1-1.2-0.1-1.7c0-1.8,0.3-3.5,1.2-5c0.5-0.8,1.3-1,2.1-1.5c0.5-0.3,1.1-0.4,1.6-0.4c1.2,0,2.3,0.6,3.1,1.5
		c1.1,1.3,1,3.1,1.1,4.8c0,0.2,0.1,0.3,0.1,0.6l-0.1,1.4l-0.3,0.2c-1.8-0.1-3.5,0-5.4-0.2c-1.2,0-0.7,0.3-0.9,0.6
		c0.1,1.6,0.5,2.9,2.1,3.5l0.2,0c0.5,0,0.8-0.4,1.3-0.5c0.8-0.6,0-1.8,1-2.1c0.2,0,0.3,0.1,0.5,0.1c0.4,0,0.8-0.1,1.1-0.1
		c0.2,0,0.4,0,0.6,0.1C172.8,41.2,173,41.6,173,41.9 M165.6,32.7L165.6,32.7c-0.3,0-0.4,0.1-0.4,0.2c0,0,0,0.1,0.1,0.1l0.1,0l0.1,0
		C165.5,33,165.7,32.9,165.6,32.7C165.7,32.8,165.7,32.7,165.6,32.7 M165.5,44.3c0-0.1-0.1-0.2-0.1-0.2c0,0-0.1,0-0.1,0
		c0,0,0,0.1,0,0.1c0,0.1,0.1,0.3,0.3,0.3V44.3z M166.6,45c0-0.1-0.2-0.2-0.3-0.2c-0.1,0-0.1,0-0.1,0.1V45c0,0.1,0.1,0.1,0.3,0.1
		C166.5,45.1,166.5,45.1,166.6,45L166.6,45z M170,34.7c-0.3-0.6-0.9-1.1-1.6-1.1c-0.1,0-0.2,0-0.3,0c-0.7,0.1-1.4,0.8-1.5,1.4
		c0,0.4-0.2,1-0.2,1.4c0,0.3,0.1,0.5,0.3,0.8c0.3,0.1,0.7,0.2,1.1,0.2l1.9-0.1c0.3,0,0.5,0,0.8,0.1C170.3,36.6,170.2,35.6,170,34.7
		 M168.9,45.5c0-0.1-0.1-0.1-0.2-0.1h0c-0.1,0-0.1,0.1-0.1,0.1v0.1c0,0,0.1,0,0.1,0.1l0.1,0C168.8,45.7,168.9,45.7,168.9,45.5
		L168.9,45.5z M171,32.7c-0.5-0.7-1.4-1.1-2.1-1.1l-0.3,0c0.6,0.1,1,0.4,1.5,0.5C170.6,32.2,170.6,32.7,171,32.7L171,32.7z
		 M169.3,45.6c0,0.1,0.1,0.1,0.2,0.1c0.2,0,0.5-0.1,0.6-0.2c0.2-0.1,0.5-0.4,0.5-0.4C170,45.6,169.3,45.5,169.3,45.6 M172.7,38.9
		c-0.2,0.1,0,0.2-0.3,0.3c-0.3,0.2-0.5,0.1-0.5,0.2v0c0,0.1,0.1,0.1,0.2,0.1c0.2,0,0.4-0.1,0.5-0.3C172.7,39.2,172.7,39,172.7,38.9
		L172.7,38.9z"/>
	<path style="clip-path:url(#SVGID_00000127022506919722428710000003009283058449636001_);fill:#FFFFFF;" d="M184.3,35.6
		c0,0.1,0,0.1,0.1,0.2v3c0,0.1-0.1,0.2-0.1,0.3v6c-0.2,0.3-0.6,0.3-1,0.5c-0.2-0.1-0.5-0.1-0.8-0.1h-0.3c-0.4,0-0.8,0-1-0.6
		c0.1-0.6,0.1-1.1,0.1-1.7c0-0.6,0-1.1-0.1-1.7c0.1-0.3,0.2-0.5,0.2-0.7l-0.1-1.2c0-0.1,0-0.3,0.1-0.4v-3.4c0-0.8-0.1-1.6-0.7-2.2v0
		l0.1-0.3c0-0.1,0-0.1-0.1-0.1c-0.1,0-0.1-0.1-0.1-0.1c-0.1,0-0.1,0.3-0.3,0.3h0c-0.1-0.1-0.2-0.1-0.3-0.1c-0.5,0-0.9,0.4-1.3,0.7
		c-0.6,0.6-0.7,1.3-0.7,2.1v1.7c0,0.3,0,0.6-0.1,0.9c0.1,0.2,0.1,0.3,0.1,0.5l-0.1,0.9c0,0.1,0,0.2,0.1,0.3v4.1
		c0.1,0.1,0.1,0.2,0.1,0.3l-0.1,0.7c-0.2,0.2-0.4,0.3-0.7,0.3c-0.3,0-0.6-0.1-0.8-0.2c-0.1,0.1-0.1,0.1-0.2,0.1
		c-0.1,0-0.3-0.1-0.4-0.1c-0.4-0.2-0.5-0.6-0.5-0.9l0.1-1.4c0-0.1,0-0.3-0.1-0.4v-0.6c0-1.2-0.1-2.3-0.1-3.6
		c0.1-0.1,0.1-0.3,0.1-0.6c0-0.6-0.1-1.6-0.1-2.4c0-0.6,0.1-1,0.2-1.3c-0.1-0.1-0.1-0.2-0.1-0.3c0-0.2,0.1-0.4,0.1-0.7v-0.1
		c-0.1-0.2-0.1-0.4-0.1-0.6c0-0.3,0-0.5,0.1-0.8c0.3-0.2,0.6-0.3,1-0.3c0.4,0,0.8,0.1,1.2,0.1c0.2,0.1,0,0.4,0.3,0.5
		c0.9-0.2,1.7-0.8,2.7-0.8c0.2,0,0.4,0,0.7,0.1c0.1,0,0.2,0,0.3,0l0.7,0c0.2,0,0.4,0,0.6,0.1c0.3,0.7,1.3,0.8,1.3,1.6v0.1
		c0.3,0.2,0.4,0.5,0.4,0.8l0,0.6c0,0.2,0,0.4,0.1,0.6C184.5,35.3,184.3,35.4,184.3,35.6 M175.5,35.7c0.2-0.1,0.3-0.3,0.3-0.6
		c0-0.2-0.1-0.4-0.1-0.4C175.5,35.1,175.6,35.4,175.5,35.7 M177.5,31.8C177.5,31.8,177.4,31.8,177.5,31.8l-0.2,0
		c-0.1,0-0.3-0.1-0.4-0.1c-0.1,0-0.1,0-0.1,0.1v0.1c0,0,0.2,0.1,0.4,0.1C177.2,32,177.3,32,177.5,31.8
		C177.4,31.9,177.5,31.9,177.5,31.8 M177.7,45c-0.1,0-0.2,0.3-0.4,0.3c0.1,0,0.2,0.1,0.3,0.1h0c0.1,0,0.3-0.1,0.3-0.2
		c0,0,0-0.1,0-0.1C177.8,45.2,177.8,45,177.7,45 M181.2,31.5c-0.1-0.1-0.1-0.1-0.2-0.1c-0.2,0-0.5,0.3-0.4,0.3c0,0,0,0.1,0.1,0.1
		c0.1,0,0.2-0.1,0.3-0.1C181.1,31.7,181.2,31.6,181.2,31.5L181.2,31.5z M182.3,31.8c-0.2-0.2-0.4-0.3-0.7-0.3h-0.1
		c-0.1,0.1-0.1,0.1-0.1,0.2c0,0,0,0.1,0.1,0.1c0.1,0,0.1,0,0.2,0c0.2,0,0.3,0.1,0.6,0.1V31.8z M183.7,33.6c0-0.1-0.1-0.4-0.2-0.4h0
		c-0.1,0-0.1,0.1-0.1,0.1c0,0.1,0.1,0.4,0.2,0.4C183.7,33.8,183.7,33.7,183.7,33.6"/>
	<path style="clip-path:url(#SVGID_00000127022506919722428710000003009283058449636001_);fill:#FFFFFF;" d="M196.7,45.7h-0.2
		c-0.2,0-0.4,0-0.6,0.1c-0.1,0-0.1,0-0.1,0c-0.3,0-0.3-0.4-0.3-0.7V45c0-0.3,0-0.6,0-1.2V42c0-2.8-0.1-6.4-0.2-7.4v-4
		c0-0.3,0-0.6,0-0.9c0-0.6,0-1.3-0.1-2.1c-1,0.2-3.6-0.1-3.9,0.7c0,1-0.1,1.8-0.1,2.8c0.2,0.2,0.4,0.3,0.6,0.3l1-0.1
		c0.4,0,0.7,0.1,0.8,0.6l0,0.6c0,0.4-0.1,0.7-0.4,0.9h-0.6c-0.6,0-1.1,0.1-1.3,0.7c0,2.6,0,5.2-0.1,7.6c0.1,0.5,0.1,0.9,0.1,1.4
		c0,0.7-0.1,1.4-0.2,2.1c-0.8,0.1-1.5,0.2-2.3,0.3c-0.2-0.3-0.2-0.6-0.2-1l0.2-1.9c0-0.1,0-0.3,0-0.4c0-0.2,0-0.4,0-0.6l0.1-1.5
		c0-0.3,0-0.7-0.1-1.1c0-1,0.1-1.9,0.1-2.9c0-0.8-0.1-1.7-0.2-2.4c-0.2-0.1-0.3-0.2-0.6-0.2l-0.4,0c-0.3,0-0.5-0.1-0.7-0.3
		c-0.2-0.1-0.6,0-0.6-0.2v0c0.2,0,0.3-0.2,0.3-0.3c0-0.3-0.4-0.6-0.4-0.8c0-0.1,0-0.1,0.1-0.1c0.1-0.1,0.2-0.1,0.3-0.1
		c0.1,0,0.3,0.1,0.4,0.1c0.2,0.1,0.1,0.4,0.3,0.6h0c0.1,0,0.2-0.1,0.2-0.3c0-0.1,0-0.1,0-0.2c0-0.1-0.1-0.1-0.1-0.1h-0.1
		c-0.1,0-0.1,0-0.1-0.1c0,0,0-0.1,0-0.1c0.5-0.4,1.2,0.1,1.4-0.7c0-0.2,0-0.4,0-0.6l0.1-2.5l0-0.5c0.6-0.8,0.6-2.3,2-2.3h0.3
		c0.7,0,1.3-0.2,1.9-0.2c0.1,0,0.2,0,0.3,0c0.8,0.1,2,0.1,3.3,0.1c0,0.1,0.1,0.1,0.1,0.1c0.1,0,0.3-0.1,0.4-0.1
		c0.6,0.3,0.8,0.9,0.8,1.5c0,0.6-0.2,1.2-0.2,1.8v0.1c0.3,1.4,0,4.4,0.4,6.8c0,0.1,0,0.3,0,0.6c0,1.3-0.2,4.1-0.2,6.3
		c0,1.3,0,2.3,0.1,2.7C197.9,45.7,197.3,45.7,196.7,45.7 M190.8,43.9c0,0,0-0.1,0-0.2c0-0.1,0-0.1,0-0.1h0c-0.1,0-0.1,0.1-0.1,0.2
		C190.7,43.8,190.7,43.9,190.8,43.9L190.8,43.9z M193.2,32.1c0-0.1,0-0.1-0.1-0.2h0c0,0,0,0,0,0.1c0,0.2,0.1,0.3,0.1,0.3
		C193.1,32.2,193.1,32.2,193.2,32.1C193.2,32.1,193.2,32.1,193.2,32.1 M196.8,27.4c0,0.1,0,0.3,0.3,0.3c0.2,0,0.2-0.2,0.2-0.3v-0.1
		l-0.1-1.3c-0.1-0.1-0.1-0.1-0.2-0.1c-0.1,0-0.1,0.1-0.1,0.3s0,0.4,0,0.6S196.9,27.1,196.8,27.4L196.8,27.4z M197.3,38.8v-0.1
		c0-0.1,0-0.1,0-0.2l-0.1,0c0,0.2,0,0.5,0,0.8c0,0.8,0.1,1.8,0.1,2.1c0,0.1,0.2-0.3,0.2-0.4v0c0-0.1-0.1-0.2-0.1-0.2l0-0.3
		c0-0.1,0-0.2-0.1-0.4c0.1-0.1,0.1-0.1,0.1-0.2l0-0.3c0-0.1,0-0.3,0.2-0.3C197.3,39,197.3,38.9,197.3,38.8 M197.5,42.8
		c0-0.1,0-0.3-0.1-0.5c0.1-0.1,0.1-0.2,0.1-0.3c0-0.1,0-0.1-0.1-0.2l-0.1,0.1l0,0.1c0,0.2-0.1,0.4-0.1,0.6s0.1,0.4,0.1,0.6l0,0.1
		c0,0.1-0.1,0.2-0.1,0.3c0,0.1,0,0.1,0.1,0.1L197.5,42.8z M197.4,44.3c0,0-0.1,0.1-0.1,0.3c0,0.2,0,0.3,0.1,0.3
		c0.1,0,0.1-0.1,0.1-0.3C197.5,44.4,197.5,44.3,197.4,44.3"/>
	<path style="clip-path:url(#SVGID_00000127022506919722428710000003009283058449636001_);fill:#FFFFFF;" d="M210,41.9
		c0,0.2-0.1,0.3-0.3,0.4c-0.1,1.2-0.7,2.5-1.9,3.1c-0.7,0.3-1.4,0.5-2.2,0.5c-1,0-2-0.3-2.8-0.7c-2-1.1-2.1-3-2.1-4.9l0-0.4
		c0-0.6-0.1-1.2-0.1-1.7c0-1.8,0.3-3.5,1.2-5c0.5-0.8,1.3-1,2.1-1.5c0.5-0.3,1.1-0.4,1.6-0.4c1.2,0,2.3,0.6,3.1,1.5
		c1.1,1.3,1,3.1,1.1,4.8c0,0.2,0.1,0.3,0.1,0.6l-0.1,1.4l-0.3,0.2c-1.8-0.1-3.5,0-5.4-0.2c-1.2,0-0.7,0.3-0.9,0.6
		c0.1,1.6,0.5,2.9,2.1,3.5l0.2,0c0.5,0,0.8-0.4,1.3-0.5c0.8-0.6,0-1.8,1-2.1c0.2,0,0.3,0.1,0.5,0.1c0.4,0,0.8-0.1,1.1-0.1
		c0.2,0,0.4,0,0.6,0.1C209.8,41.2,210,41.6,210,41.9 M202.6,32.7L202.6,32.7c-0.3,0-0.4,0.1-0.4,0.2c0,0,0,0.1,0.1,0.1l0.1,0l0.1,0
		C202.5,33,202.6,32.9,202.6,32.7C202.6,32.8,202.6,32.7,202.6,32.7 M202.5,44.3c0-0.1-0.1-0.2-0.1-0.2c0,0-0.1,0-0.1,0
		c0,0,0,0.1,0,0.1c0,0.1,0.1,0.3,0.3,0.3V44.3z M203.5,45c0-0.1-0.2-0.2-0.3-0.2c-0.1,0-0.1,0-0.1,0.1V45c0,0.1,0.1,0.1,0.3,0.1
		C203.4,45.1,203.5,45.1,203.5,45L203.5,45z M206.9,34.7c-0.3-0.6-0.9-1.1-1.6-1.1c-0.1,0-0.2,0-0.3,0c-0.7,0.1-1.4,0.8-1.5,1.4
		c0,0.4-0.2,1-0.2,1.4c0,0.3,0.1,0.5,0.3,0.8c0.3,0.1,0.7,0.2,1.1,0.2l1.9-0.1c0.3,0,0.5,0,0.8,0.1
		C207.3,36.6,207.2,35.6,206.9,34.7 M205.9,45.5c0-0.1-0.1-0.1-0.2-0.1h0c-0.1,0-0.1,0.1-0.1,0.1v0.1c0,0,0.1,0,0.1,0.1l0.1,0
		C205.8,45.7,205.9,45.7,205.9,45.5L205.9,45.5z M208,32.7c-0.5-0.7-1.4-1.1-2.1-1.1l-0.3,0c0.6,0.1,1,0.4,1.5,0.5
		C207.6,32.2,207.6,32.7,208,32.7L208,32.7z M206.3,45.6c0,0.1,0.1,0.1,0.2,0.1c0.2,0,0.5-0.1,0.6-0.2c0.2-0.1,0.5-0.4,0.5-0.4
		C206.9,45.6,206.3,45.5,206.3,45.6 M209.7,38.9c-0.2,0.1,0,0.2-0.3,0.3c-0.3,0.2-0.5,0.1-0.5,0.2v0c0,0.1,0.1,0.1,0.2,0.1
		c0.2,0,0.4-0.1,0.5-0.3C209.7,39.2,209.7,39,209.7,38.9L209.7,38.9z"/>
	<path style="clip-path:url(#SVGID_00000127022506919722428710000003009283058449636001_);fill:#FFFFFF;" d="M215.2,26.6
		c0,0.3-0.3,0.6-0.3,1l0,0.1c-0.1,0.3,0,0.8-0.3,0.8h0c-0.1-0.1-0.3-0.1-0.4-0.1l-0.8,0.1c-0.2,0-0.4-0.1-0.6-0.3l-0.3,0.2
		c-0.2-0.2-0.2-0.5-0.2-0.8c0-0.2,0.1-0.5,0.1-0.7v-0.1c0-0.2-0.1-0.3-0.3-0.3c0-0.3,0.3-0.5,0.3-0.7c0-0.1,0-0.2-0.1-0.3v-0.1h0
		l0.5,0.2c0,0,0.1,0,0.1-0.1c-0.1-0.1-0.1-0.2-0.1-0.3c0-0.1,0-0.2,0.1-0.2c0.6,0.1,1.3,0,1.8,0.2v0.1c0,0.3,0.6,0.4,0.6,0.7
		c0,0.1,0,0.2-0.1,0.3C215.2,26.4,215.2,26.5,215.2,26.6 M213.8,45.5c-0.1-0.1-0.2-0.1-0.3-0.1c-0.2,0-0.5,0.1-0.7,0.1
		c-0.1,0-0.3-0.1-0.4-0.2c0.2-0.1,0.2-0.3,0.2-0.5c0-0.3-0.1-0.6-0.1-0.9c0-0.1,0.1-0.3,0.1-0.4c0-0.7,0-1.3,0-2v-2
		c0-0.8,0-1.6-0.1-2.5c0-0.3,0-0.7,0-1v-1c0-1,0-1.9-0.3-2.9c0.1-1.2,1.6-0.7,2.4-1c0.1,0,0.1,0,0.1,0c0.3,0,0.4,0.3,0.4,0.5
		c-0.2,1.9-0.3,4-0.3,6v0.7c0,2.4,0,4.8,0.3,7.2L213.8,45.5z M213.8,25.7c-0.1,0.1-0.2,0.1-0.3,0.1h-0.3c-0.1,0-0.3,0-0.4,0.2
		c0,0.1,0,0.4,0.2,0.5v0c0-0.7,0.9-0.3,1.2-0.6c0.2,0.1,0.4,0.2,0.4,0.5c0,0,0,0.1,0.1,0.1s0.1,0,0.1-0.1c0,0,0.1-0.1,0.1-0.1
		c0-0.1,0-0.1,0-0.1C214.6,25.7,214.1,26,213.8,25.7 M213.1,45.1c0-0.2,0-0.3,0-0.4c0-0.1,0-0.3,0-0.4c0-0.1,0-0.3,0-0.4v-0.5
		c0-0.3,0-0.6-0.2-0.9V45C212.8,45.1,212.9,45.1,213.1,45.1L213.1,45.1z M214.9,45.3c0,0,0.1-0.1,0.1-0.1c0-0.1,0-0.1-0.1-0.2
		c-0.1,0-0.1,0.1-0.1,0.2C214.8,45.2,214.8,45.3,214.9,45.3L214.9,45.3C214.9,45.3,214.9,45.3,214.9,45.3L214.9,45.3z M215.2,25.6
		L215.2,25.6l-0.1-0.1c0-0.1,0.1-0.1,0.1-0.1h0c0,0,0.1,0.1,0.1,0.1S215.3,25.6,215.2,25.6C215.3,25.6,215.3,25.6,215.2,25.6"/>
	<path style="clip-path:url(#SVGID_00000127022506919722428710000003009283058449636001_);fill:#FFFFFF;" d="M228.5,38.3
		c0,1.1-0.1,2.4-0.1,3.9c-0.2,0.4-0.6,0.8-0.7,1.2c-0.4,1.2-1.1,1.6-2.9,2l-1.1,0.2c-0.3,0.1-0.6,0.1-0.8,0.1
		c-0.3,0-1.5-0.5-1.5-1.4c0-0.6,0.6-1.2,1.2-1.2c0.3,0,0.5,0.2,0.7,0.2c0.5,0,0.9-0.5,1.4-0.5h0.1c0.9,0,1.2-1.9,1.2-3.5
		c0-2-0.5-3.8-2.7-3.8c-0.1,0-0.3,0-0.5,0.1c-0.3-0.3-0.3-0.8-0.4-1.2c0.1-0.1,0.1-0.3,0.1-0.5v-0.3c0-0.3,0.1-0.5,0.5-0.5l0.3,0
		c0.8,0,1.3,0,1.7-1c0.3-0.4,0.5-0.7,0.5-1v-0.1c0-0.3-0.1-0.6-0.1-1v-0.2c-0.1-0.1-0.2-0.3-0.2-0.5c0-0.1,0-0.1,0-0.2
		c-0.6-0.5-1-1.1-1.8-1.2l-0.3,0c-1.5,0-2.4,1.1-2.4,3.3v0.3c0,0.1-0.1,0.2-0.1,0.3c0,0.1,0,0.1,0,0.2c0,0.1,0,0.3-0.1,0.5
		c0.1,0.3,0.1,0.7,0.1,1l-0.1,3.3c0,0.3,0,0.7,0,1l0,0.4c0,0.3,0,0.6-0.1,0.8c0.1,0.1,0.1,0.2,0.1,0.3c0,0.2-0.1,0.4-0.1,0.5
		c0,0.1,0.1,0.3,0.1,0.3c0,0.1,0,0.1-0.1,0.2l0,0.1c0,0.1-0.1,0.2-0.1,0.3c0,0.1,0,0.1,0.1,0.1l0,0.3c0,0.2,0,0.3,0.1,0.5
		c0,0.1,0,0.1-0.1,0.2c0,0.1,0,0.1,0,0.2l-0.1,0.4c0,0.1,0,0.2,0.1,0.3c-0.1,0-0.1,0.1-0.1,0.1c0.1,0.1,0.1,0.1,0.1,0.2
		s0,0.1-0.1,0.2c0,0.2,0,0.1,0,2.3c0,0.3-0.9,0.8-1,0.8l-0.8,0c-0.4-0.1-0.4-0.5-0.8-0.8c0.1-0.1,0.1-0.2,0.1-0.2l0-0.1
		c0-0.1,0-0.7,0-0.8c0-0.1-0.1-0.2-0.1-0.3l0.1-0.4c0-0.1-0.1-0.1-0.2-0.2c0.1-0.1,0.2-0.2,0.2-0.3c0,0,0-0.1-0.1-0.1
		c0-0.1,0.1-0.1,0.1-0.2c0-0.1-0.1-0.2-0.1-0.3v-0.1c0-0.1,0.1-0.2,0.1-0.3c0-0.1-0.1-0.3-0.1-0.3c0,0,0-0.1,0.1-0.1
		c0-0.1-0.1-0.3-0.1-0.4c0-0.1,0-0.2,0.1-0.3c-0.1-0.3-0.1-1-0.1-1.8c0-2.1,0.1-3.6,0.1-4.4c0-0.3,0-0.6-0.1-0.7
		c0.1-0.1,0.1-0.3,0.1-0.5c0-0.3-0.1-0.5-0.1-0.8c0.1-0.1,0.1-0.2,0.1-0.3l0-0.4c0.2-1.8,0.3-4.4,0.9-4.4h0.1
		c0.2-0.2,0.3-0.5,0.4-0.8l1.2-0.9c0.9-0.2,2-0.6,3-0.6c1.4,0,2.5,0.9,3.4,1.8l0.3,0.3c0.7,1.2,0.6,2.5,0.8,3.8
		c-0.1,1.2-0.6,2-1.7,2.8l-0.1,0.3c1.2,0.8,2.3,1.9,2.4,3.2C228.5,37.7,228.5,38,228.5,38.3 M218.6,38.9c0-0.2-0.3-0.5-0.3-0.8v-0.2
		c0,0-0.1,0.2-0.1,0.3c0,0.1,0,0.2,0.1,0.3c0,0-0.2,0.3-0.2,0.5c0,0.1,0.1,0.1,0.2,0.1c0.1,0,0.2,0,0.3-0.1
		C218.6,39,218.6,39,218.6,38.9 M218.2,35.2c-0.1,0-0.1,0.1-0.1,0.1c0,0.1,0.1,0.1,0.2,0.1s0.1,0,0.1-0.1
		C218.4,35.3,218.3,35.2,218.2,35.2 M218.4,37.6c0.1,0,0.1-0.1,0.1-0.1c0-0.2-0.1-0.7-0.2-1c0-0.2,0-0.6-0.1-0.6
		c0,0-0.1,0.2-0.1,0.3c0,0.3,0.1,0.6,0.1,0.7l0,0.5C218.2,37.5,218.2,37.5,218.4,37.6C218.3,37.6,218.4,37.6,218.4,37.6 M218.2,43.8
		l0.2,0l0-0.1c0.1-0.1,0.1-0.2,0.1-0.3c0-0.2-0.1-0.3-0.1-0.5l0-0.1h-0.1c0,0-0.1,0-0.1,0v0c0,0,0.1-0.1,0.1-0.1l-0.1-0.9
		c0.2-0.1,0.2-0.1,0.2-0.2l-0.1-0.3c0-0.1,0-0.1,0.1-0.2v-0.1l0.1-0.6c0-0.2-0.2-0.2-0.2-0.2c0,0,0,0,0,0.1v0.1
		c-0.1,0.1-0.1,0.1-0.1,0.2l0.1,0.3c0,0.1,0,0.1-0.1,0.2c0.1,0,0.1,0.1,0.1,0.1l-0.1,0.3c0,0.1,0,0.1,0.1,0.1
		c-0.1,0.1-0.1,0.2-0.1,0.4c0,0.1,0,0.2,0.1,0.4c0,0.1-0.1,0.2-0.1,0.4c0,0.1,0,0.2,0.1,0.2c-0.1,0.1-0.1,0.1-0.1,0.2
		c0,0.1,0.1,0.3,0.1,0.3c-0.1,0-0.2,0.1-0.2,0.2L218.2,43.8z M218.5,45.9C218.5,45.9,218.5,45.9,218.5,45.9c0.1,0.1,0.1,0,0.1-0.1
		c0-0.1-0.1-0.7-0.1-0.7c0,0,0,0-0.1,0c0,0,0-0.1,0-0.1l0-0.1c0,0,0-0.1,0-0.1c-0.1,0-0.2,0.3-0.2,0.5c0,0,0.1,0.5,0.1,0.5l0.1-0.1
		C218.5,45.7,218.5,45.8,218.5,45.9L218.5,45.9z M218.4,45.3c0,0.1-0.1,0.1-0.1,0.1c-0.1,0-0.1-0.1-0.1-0.1
		C218.2,45.3,218.3,45.3,218.4,45.3C218.4,45.3,218.4,45.3,218.4,45.3 M218.6,39.7c-0.1,0-0.1,0-0.1,0.1c0,0.1,0,0.1,0.1,0.1
		l0.1-0.1L218.6,39.7z M223,45.3c-0.1,0-0.1,0.1-0.1,0.1c0,0.1,0,0.1,0.1,0.1c0,0,0.1,0,0.1-0.1C223.1,45.4,223,45.3,223,45.3
		 M228.2,41.8c-0.1,0-0.1,0.1-0.1,0.2c0,0.1,0.1,0.1,0.1,0.2l0-0.1L228.2,41.8z"/>
	<polygon style="clip-path:url(#SVGID_00000127022506919722428710000003009283058449636001_);fill:#FFFFFF;" points="44.1,67.8 
		82,67.8 100.9,35.4 82,3 44.1,3 25.2,35.4 	"/>
	<polygon style="clip-path:url(#SVGID_00000127022506919722428710000003009283058449636001_);fill:#503729;" points="46.7,41.7 
		51.4,64.1 61.5,61.6 49.4,41.3 	"/>
	<path style="clip-path:url(#SVGID_00000127022506919722428710000003009283058449636001_);fill:#503729;" d="M62.7,25.3
		C61.4,25.1,60.2,25,59,25c-1.4,0-2.7,0.1-3.9,0.4c-0.4,2.3-1,4.6-2,6.6c-1,2-2.3,4-3.9,5.7c1,2,2.7,4.1,4.7,6
		c2.3-2.5,4.5-5.4,6-8.5C61.4,32.2,62.2,28.7,62.7,25.3"/>
	<path style="clip-path:url(#SVGID_00000127022506919722428710000003009283058449636001_);fill:#503729;" d="M83.5,38.2
		c-1.4-2.6-3.3-5.1-5.7-7.1c-0.2,3.8-0.9,8-2.6,11.5c-1.7,3.5-4.6,6.7-7.4,9.3c2.9,0.8,5.7,1,8.3,0.9c2-2.2,3.7-4.7,5-7.4
		C82.2,43.2,83,40.7,83.5,38.2"/>
	<path style="clip-path:url(#SVGID_00000127022506919722428710000003009283058449636001_);fill:#503729;" d="M74,28.8
		c-2.2-1-4.3-1.8-6.4-2.4c-0.2,3.8-0.9,8-2.5,11.4c-1.7,3.5-4.4,6.6-7.3,9.2c1.8,1.3,3.8,2.4,5.9,3.5c2.8-2.8,5.5-6.1,7.3-9.8
		C72.7,36.9,73.6,32.7,74,28.8"/>
	<path style="clip-path:url(#SVGID_00000127022506919722428710000003009283058449636001_);fill:#503729;" d="M85.5,42.7
		c-0.4,1.6-0.9,3.1-1.6,4.6c-0.9,1.8-2.1,3.6-3.4,5.2c4.2-0.7,7-1.9,7-1.9S87.1,47,85.5,42.7"/>
	<polygon style="clip-path:url(#SVGID_00000127022506919722428710000003009283058449636001_);fill:#503729;" points="74.4,6.8 
		56.4,20.9 58.3,23 80.6,15.2 74.4,6.8 	"/>
	<path style="clip-path:url(#SVGID_00000127022506919722428710000003009283058449636001_);fill:#503729;" d="M49.1,21.4
		c-1.3-0.7-2.8-0.8-4.2-0.4l-2.2-2.9l0.8-1.6l-1.7-0.8l-1.3,2.7l2.6,3.4c-1.3,0.8-2.4,1.9-3.2,3.4c-0.8,1.5-1.1,3.1-1,4.6l-4.2,0.7
		l-0.9,2.8l1.8,0.6l0.6-1.7l3.2-0.5c0.5,1.4,1.4,2.5,2.7,3.2c3.1,1.6,7.3-0.1,9.2-3.8C53.3,27.3,52.3,23,49.1,21.4"/>
</g>
</svg>
